<svg width="32" height="32" viewBox="0 0 32 32" fill="none" xmlns="http://www.w3.org/2000/svg">
<path d="M27.8605 8.56055L24.5205 11.9005L27.6005 12.9305C27.7121 13.3416 27.7989 13.7591 27.8605 14.1805L23.3605 13.0605L20.3105 16.1105L21.0505 18.3205C21.1004 18.4667 21.1832 18.5995 21.2924 18.7087C21.4016 18.8179 21.5344 18.9006 21.6805 18.9505L24.1205 19.7605L24.9005 24.0405C23.065 26.0776 20.5862 27.4232 17.878 27.8527C15.1698 28.2823 12.3963 27.7697 10.0205 26.4005L8.56055 27.8605C11.2459 29.5449 14.4233 30.2682 17.5731 29.9121C20.7229 29.556 23.6586 28.1415 25.9001 25.9001C28.1415 23.6586 29.556 20.7229 29.9121 17.5731C30.2682 14.4233 29.5449 11.2459 27.8605 8.56055ZM26.5205 21.7805L25.9805 18.8205C25.9493 18.645 25.8716 18.4809 25.7556 18.3455C25.6395 18.2101 25.4893 18.1083 25.3205 18.0505L22.7905 17.2105L22.2205 15.5105L23.1205 15.0605L27.9905 16.2805C27.9529 18.2058 27.4484 20.0932 26.5205 21.7805Z" fill="white"/>
<path d="M28.7102 3.2902C28.5214 3.1028 28.2662 2.99764 28.0002 2.99764C27.7342 2.99764 27.479 3.1028 27.2902 3.2902L25.1602 5.4202C22.4861 3.10191 19.0328 1.88297 15.4959 2.00886C11.959 2.13475 8.60122 3.59612 6.09867 6.09867C3.59612 8.60122 2.13475 11.959 2.00886 15.4959C1.88297 19.0328 3.10191 22.4861 5.4202 25.1602L3.2902 27.2902C3.10285 27.479 2.99772 27.7342 2.99772 28.0002C2.99772 28.2662 3.10285 28.5214 3.2902 28.7102C3.47978 28.8961 3.7347 29.0002 4.0002 29.0002C4.26571 29.0002 4.52063 28.8961 4.7102 28.7102L28.7102 4.7102C28.8976 4.5214 29.0027 4.26619 29.0027 4.0002C29.0027 3.73422 28.8976 3.47901 28.7102 3.2902ZM9.8502 5.7002L10.0502 6.3102C10.078 6.39574 10.1185 6.47664 10.1702 6.5502L11.7102 8.8702L10.2902 10.2902C10.106 10.4809 10.0021 10.7351 10.0002 11.0002V12.0002H7.3102L5.3002 10.5702C6.3293 8.55169 7.90619 6.8639 9.8502 5.7002ZM9.0002 21.5802L6.8402 23.7402C5.00274 21.5803 3.99576 18.8359 4.0002 16.0002C4.00156 14.8005 4.18016 13.6077 4.5302 12.4602L6.2702 13.7102L8.1302 16.5002L9.0002 18.2402V21.5802ZM21.1102 9.4802L13.5802 17.0002H10.6202L9.8902 15.5502C9.87394 15.5148 9.85382 15.4812 9.8302 15.4502L8.8702 14.0002H11.0002C11.2652 13.9994 11.5191 13.8938 11.7065 13.7065C11.8938 13.5191 11.9994 13.2652 12.0002 13.0002V11.4102L13.7102 9.7102C13.8725 9.54625 13.973 9.33124 13.9949 9.1016C14.0168 8.87197 13.9586 8.64184 13.8302 8.4502L11.9102 5.5602L11.6602 4.8102C13.0443 4.27403 14.5159 3.99938 16.0002 4.0002V5.0002C16.0002 5.26542 16.1056 5.51977 16.2931 5.70731C16.4806 5.89485 16.735 6.0002 17.0002 6.0002C17.2654 6.0002 17.5198 5.89485 17.7073 5.70731C17.8948 5.51977 18.0002 5.26542 18.0002 5.0002V4.1702C19.4792 4.41725 20.8977 4.94326 22.1802 5.7202L21.1102 9.4702V9.4802Z" fill="white"/>
</svg>
