<svg xmlns="http://www.w3.org/2000/svg" width="74" height="30" fill="none" viewBox="0 0 74 30"><g clip-path="url(#a)"><path fill="#3F4642" d="M72.943 26.597V3.253c0-1.205-.964-2.182-2.153-2.182H4.06c-1.189 0-2.152.977-2.152 2.182v23.344c0 1.205.963 2.182 2.152 2.182H70.79c1.19 0 2.153-.977 2.153-2.182ZM2.848 3.226c0-.67.536-1.212 1.196-1.212.66 0 1.196.542 1.196 1.212 0 .669-.536 1.212-1.196 1.212-.66 0-1.196-.543-1.196-1.212Zm66.758 0c0-.67.536-1.212 1.196-1.212.66 0 1.196.542 1.196 1.212 0 .669-.536 1.212-1.196 1.212-.66 0-1.196-.543-1.196-1.212ZM2.848 26.562c0-.669.536-1.212 1.196-1.212.66 0 1.196.543 1.196 1.212 0 .67-.536 1.212-1.196 1.212-.66 0-1.196-.542-1.196-1.212Zm66.758 0c0-.669.536-1.212 1.196-1.212.66 0 1.196.543 1.196 1.212 0 .67-.536 1.212-1.196 1.212-.66 0-1.196-.542-1.196-1.212Z"/><path fill="#ADB0B0" d="M66.132 6.078v7.563h5.76V6.078h-5.76Z"/><path fill="#ADB0B0" d="M71.964 19.87v-2.884H68.98v2.883h2.985Z"/><path fill="#1D1D1B" d="M38.496 25.334v-2.635H35.1v2.635h3.397Z"/><path fill="#1D1D1B" d="M30.993 24.157v1.329h1.855v-1.329h-1.855Z"/><path fill="#1D1D1B" d="M24.706 2.773v1.968h2.766V2.773h-2.766Z"/><path fill="#9FA1A2" d="M9.304 10.041H1.057v9.767h8.247v-9.767Z"/><path fill="#C3C5C6" d="M22.87 17.593v-4.934h-3.044v4.934h3.043Z"/><path fill="#1D1D1B" d="M16.75 16.546v-2.505h-2.968v2.505h2.968Z"/><path fill="#1D1D1B" d="M13.216 16.296v-1.691h-1.214v1.691h1.214Z"/><path fill="#1D1D1B" d="M13.216 14.015v-1.692h-1.214v1.692h1.214Z"/><path fill="#1D1D1B" d="M10.35 23.385v-2.168H8.21v2.168h2.14Z"/><path fill="#1D1D1B" d="M10.35 26.788V24.62H8.21v2.168h2.14Z"/><path fill="#1D1D1B" d="M6.42 4.935V8.16h3.182V4.935H6.42Z"/><path fill="#1D1D1B" d="M22.57 23.347v-2.168h-2.14v2.168h2.14Z"/><path fill="#1D1D1B" d="M22.57 26.871v-2.168h-2.14v2.168h2.14Z"/><path fill="#1D1D1B" d="M16.605 2.608v1.256h1.617V2.608h-1.617Z"/><path fill="#1D1D1B" d="M22.733 7.59h-1.24v1.638h1.24V7.59Z"/><path fill="#1D1D1B" d="M19.418 2.699v1.968h2.766V2.699h-2.766Z"/><path fill="#1D1D1B" d="M11.446 2.699v1.968h2.766V2.699h-2.766Z"/><path fill="#C3C5C6" d="M12.094 8.888V6.547h-1.503v2.34h1.503Z"/><path fill="#1D1D1B" d="M19.14 26.985v-7.61H11.63v7.61h7.509Z"/><path fill="#1D1D1B" d="M18.57 11.086v-4.25h-4.194v4.25h4.195Z"/><path fill="#1D1D1B" d="M47.925 19.558V4.101H32.674v15.457h15.251Z"/><path fill="#1D1D1B" d="M62.942 20.042V3.48H51.699v16.56h11.243Z"/></g><defs><clipPath id="a"><path fill="#fff" d="M0 0h27.708v71.886H0z" transform="rotate(90 35.936 37.007)"/></clipPath></defs></svg>