<svg width="111" height="25" viewBox="0 0 111 25" fill="none" xmlns="http://www.w3.org/2000/svg">
  <g clip-path="url(#clip0_1_4998)">
    <g clip-path="url(#clip1_1_4998)">
      <path fill-rule="evenodd" clip-rule="evenodd" d="M51.25 12.5C51.25 5.60219 45.5773 0 38.6242 0C37.984 0 37.3261 0.0364964 36.6859 0.145985C31.2799 0.930657 27.6522 4.92701 25.625 7.9927C23.5978 4.92701 19.9701 0.930657 14.5641 0.145985C13.9239 0.0547445 13.266 0 12.6258 0C5.65493 0 0 5.60219 0 12.5C0 19.3978 5.67271 25 12.6258 25C13.266 25 13.9239 24.9635 14.5819 24.854C19.9879 24.0511 23.6155 20.0547 25.6428 16.9891C27.67 20.0547 31.2977 24.0511 36.7037 24.854C37.3439 24.9453 38.0018 25 38.6598 25C45.5773 25 51.25 19.3978 51.25 12.5ZM13.9416 20.4744C13.4971 20.5474 13.0525 20.5657 12.6079 20.5657C8.01996 20.5657 4.30336 16.9343 4.30336 12.5C4.30336 8.04744 8.03774 4.4343 12.6257 4.4343C13.0703 4.4343 13.5148 4.4708 13.9594 4.52554C19.0631 5.27372 22.1751 10.4379 23.242 12.5C22.1573 14.5803 19.0275 19.7263 13.9416 20.4744ZM37.2905 4.52554C32.1868 5.27372 29.057 10.4379 28.0079 12.5C29.057 14.562 32.1868 19.7263 37.2905 20.4744C37.735 20.5292 38.1796 20.5657 38.6242 20.5657C43.1944 20.5657 46.9287 16.9525 46.9287 12.5C46.9287 8.06569 43.2121 4.4343 38.6242 4.4343C38.1796 4.4343 37.735 4.4708 37.2905 4.52554ZM9.06449 11.161H16.7004V13.5642H9.06449V11.161ZM42.1479 13.5817H39.5728V16.1077H37.1049V13.5817H34.5298V11.161H37.1049V8.63499H39.5728V11.161H42.1479V13.5817Z" fill="white" />
    </g>
    <path d="M61.148 22H64.502V16.618H67.388C71.47 16.618 73.732 14.304 73.732 10.768C73.732 7.466 72.042 5.1 67.518 5.1H61.148V22ZM67.284 13.836H64.502V7.882H67.18C69.546 7.882 70.17 9.13 70.17 10.898C70.17 13.082 69.104 13.836 67.284 13.836ZM78.2018 22H81.5558V16.15H84.4158L87.3798 22H91.3578L87.7958 15.5C89.6938 14.59 90.7078 12.874 90.7078 10.56C90.7078 7.258 88.9918 5.1 84.4678 5.1H78.2018V22ZM84.2338 13.42H81.5558V7.882H84.1558C86.3658 7.882 87.1458 8.714 87.1458 10.612C87.1458 12.718 85.9238 13.42 84.2338 13.42ZM101.704 4.866C96.6857 4.866 94.6057 8.532 94.6057 13.68C94.6057 19.166 96.7637 22.26 101.652 22.26C106.826 22.26 108.854 18.49 108.854 13.55C108.854 7.414 106.566 4.866 101.704 4.866ZM101.652 19.478C98.6877 19.478 98.1677 17.45 98.1677 13.68C98.1677 9.364 98.8697 7.648 101.704 7.648C104.668 7.648 105.292 9.312 105.292 13.55C105.292 17.554 104.59 19.478 101.652 19.478Z" fill="white" />
  </g>
  <defs>
    <clipPath id="clip0_1_4998">
      <rect width="110.25" height="25" fill="white" />
    </clipPath>
    <clipPath id="clip1_1_4998">
      <rect width="51.25" height="25" fill="white" />
    </clipPath>
  </defs>
</svg>