<svg width="145" height="14" viewBox="0 0 145 14" fill="none" xmlns="http://www.w3.org/2000/svg">
<path d="M0.5 13.8116L4.66216 0.190002H8.44595L12.7973 13.8116H9.2027L8.44595 11.163H4.66216L3.90541 13.8116H0.5ZM6.55405 3.59541L5.22973 8.51433H7.87838L6.55405 3.59541Z" fill="#7F8C8D"/>
<path d="M14.8789 0.189178H20.3654C24.1492 0.189178 25.4735 2.08107 25.4735 4.72972C25.4735 6.62161 24.7167 7.94594 23.2032 8.70269L25.8519 13.6216H21.8789L19.987 9.45945H18.2843V13.8108H14.8789V0.189178ZM22.0681 4.72972C22.0681 3.59458 21.6897 2.83783 19.987 2.83783H18.2843V6.62161H19.987C21.3113 6.8108 22.0681 6.24323 22.0681 4.72972Z" fill="#7F8C8D"/>
<path d="M28.3103 0.189178H32.6616C37.7697 0.189178 39.4724 2.64864 39.4724 6.8108C39.4724 10.027 38.5265 13.6216 32.6616 13.6216H28.1211V0.189178H28.3103ZM31.7157 2.83783V10.7838H33.04C35.8778 10.7838 36.067 9.08107 36.067 6.8108C36.067 4.16215 35.8778 2.83783 32.8508 2.83783H31.7157Z" fill="#7F8C8D"/>
<path d="M49.3098 0.189178H52.526V9.08107C52.526 13.054 49.4989 14 47.0395 14C44.7692 14 41.7422 13.2432 41.7422 9.08107V0.189178H45.1476V8.5135C45.1476 10.7838 45.9044 11.3513 47.2287 11.3513C48.7422 11.3513 49.3098 10.5946 49.3098 8.5135V0.189178Z" fill="#7F8C8D"/>
<path d="M55.5547 10.973H59.1493V3.02702H55.7439V0.189178H66.1493V3.02702H62.5547V10.973H66.1493V13.8108H55.7439V10.973H55.5547Z" fill="#7F8C8D"/>
<path d="M71.8256 13.6216H68.6094V0.189178H72.3932L76.7445 8.32431V0.189178H79.9607V13.8108H76.5553L72.0148 5.1081L71.8256 13.6216Z" fill="#7F8C8D"/>
<path d="M93.5796 7C93.5796 10.973 92.0661 14 87.7147 14C83.7418 14 82.0391 11.7297 82.0391 7.18919C82.0391 3.02703 83.5526 0 87.7147 0C91.6877 0 93.5796 1.7027 93.5796 7ZM89.985 7C89.985 3.59459 89.7958 2.83784 87.7147 2.83784C86.012 2.64865 85.6337 3.78378 85.6337 7.18919C85.6337 9.83784 85.8228 11.3514 87.7147 11.3514C89.7958 11.1622 89.985 10.027 89.985 7Z" fill="#7F8C8D"/>
<g clip-path="url(#clip0_9608_99952)">
<path d="M97 0.190277H101.667C105.119 0.190277 106.417 1.88519 106.417 4.60452C106.417 7.3874 104.554 8.95712 101.812 8.95712H98.6744V13.7899H97V0.190277ZM104.618 4.70841C104.618 2.74141 103.801 1.65345 101.624 1.65345H98.6744V7.53466H101.709C103.404 7.53466 104.618 6.84285 104.618 4.70841Z" fill="#DEF154"/>
<path d="M110.418 0.190277H114.44C117.579 0.190277 118.786 1.63214 118.786 4.3526C118.786 6.2572 117.905 7.57538 116.469 8.16141L119.418 13.7907H117.579L114.898 8.49628H111.969V13.7907H110.418V0.190277ZM117.158 4.41425C117.158 2.40501 116.335 1.65192 114.382 1.65192H111.969V7.05214H114.476C115.971 7.05214 117.158 6.44556 117.158 4.41425Z" fill="#DEF154"/>
<path d="M134.418 7.01065C134.418 11.0493 132.538 14 128.857 14C124.975 14 123.418 11.3214 123.418 7.03158C123.418 2.82512 125.177 0 128.939 0C132.78 0 134.418 2.44876 134.418 7.01065ZM132.679 7.01065C132.679 3.453 131.85 1.46507 128.939 1.46507C126.046 1.46507 125.157 3.34874 125.157 7.03158C125.157 10.4846 125.885 12.5349 128.857 12.5349C131.708 12.5349 132.679 10.3168 132.679 7.01065Z" fill="#DEF154"/>
</g>
<path fill-rule="evenodd" clip-rule="evenodd" d="M140.157 1.77549H138.671V5.71149H137.736V1.77549H136.25V1.00049H140.157V1.77549Z" fill="#DEF154"/>
<path fill-rule="evenodd" clip-rule="evenodd" d="M143.932 2.457L143.127 4.081H142.46L141.59 2.392V5.712H140.836V1H141.663L142.794 3.16L143.896 1H144.7V5.712H143.932V2.457Z" fill="#DEF154"/>
<defs>
<clipPath id="clip0_9608_99952">
<rect width="37.4168" height="14" fill="white" transform="translate(97)"/>
</clipPath>
</defs>
</svg>
