<svg width="18" height="18" viewBox="0 0 18 18" fill="none" xmlns="http://www.w3.org/2000/svg">
<path d="M9.00011 17.07C8.86851 17.0708 8.73805 17.0455 8.61621 16.9958C8.49437 16.946 8.38355 16.8727 8.29011 16.78L1.22012 9.70999C1.12639 9.61703 1.05199 9.50643 1.00122 9.38457C0.950454 9.26271 0.924316 9.132 0.924316 8.99999C0.924316 8.86798 0.950454 8.73728 1.00122 8.61542C1.05199 8.49356 1.12639 8.38296 1.22012 8.28999L8.29011 1.21999C8.38308 1.12626 8.49368 1.05187 8.61554 1.0011C8.7374 0.950332 8.8681 0.924194 9.00011 0.924194C9.13213 0.924194 9.26283 0.950332 9.38469 1.0011C9.50655 1.05187 9.61715 1.12626 9.71011 1.21999L16.7801 8.28999C16.8738 8.38296 16.9482 8.49356 16.999 8.61542C17.0498 8.73728 17.0759 8.86798 17.0759 8.99999C17.0759 9.132 17.0498 9.26271 16.999 9.38457C16.9482 9.50643 16.8738 9.61703 16.7801 9.70999L9.71011 16.78C9.61667 16.8727 9.50586 16.946 9.38402 16.9958C9.26218 17.0455 9.13172 17.0708 9.00011 17.07ZM3.34012 8.99999L9.00011 14.66L14.6601 8.99999L9.00011 3.33999L3.34012 8.99999Z" fill="white"/>
</svg>
