<svg width="18" height="18" viewBox="0 0 18 18" fill="none" xmlns="http://www.w3.org/2000/svg">
<path d="M16.7801 9.70999L9.71011 16.78C9.61715 16.8737 9.50655 16.9481 9.38469 16.9989C9.26283 17.0497 9.13213 17.0758 9.00011 17.0758C8.8681 17.0758 8.7374 17.0497 8.61554 16.9989C8.49368 16.9481 8.38308 16.8737 8.29011 16.78L1.22012 9.70999C1.12639 9.61703 1.05199 9.50643 1.00122 9.38457C0.950454 9.26271 0.924316 9.132 0.924316 8.99999C0.924316 8.86798 0.950454 8.73728 1.00122 8.61542C1.05199 8.49356 1.12639 8.38296 1.22012 8.28999L8.29011 1.21999C8.38308 1.12626 8.49368 1.05187 8.61554 1.0011C8.7374 0.950332 8.8681 0.924194 9.00011 0.924194C9.13213 0.924194 9.26283 0.950332 9.38469 1.0011C9.50655 1.05187 9.61715 1.12626 9.71011 1.21999L16.7801 8.28999C16.8738 8.38296 16.9482 8.49356 16.999 8.61542C17.0498 8.73728 17.0759 8.86798 17.0759 8.99999C17.0759 9.132 17.0498 9.26271 16.999 9.38457C16.9482 9.50643 16.8738 9.61703 16.7801 9.70999Z" fill="#1DA086"/>
</svg>
