<svg width="10" height="15" viewBox="0 0 10 15" fill="none" xmlns="http://www.w3.org/2000/svg">
<path d="M1.99994 15C1.86833 15.0008 1.73787 14.9755 1.61603 14.9258C1.4942 14.876 1.38338 14.8027 1.28994 14.71C1.19621 14.617 1.12182 14.5064 1.07105 14.3846C1.02028 14.2627 0.994141 14.132 0.994141 14C0.994141 13.868 1.02028 13.7373 1.07105 13.6154C1.12182 13.4936 1.19621 13.383 1.28994 13.29L6.58994 8L1.28994 2.71C1.10164 2.5217 0.995848 2.2663 0.995848 2C0.995848 1.7337 1.10164 1.47831 1.28994 1.29C1.47824 1.1017 1.73364 0.995911 1.99994 0.995911C2.26624 0.995911 2.52164 1.1017 2.70994 1.29L8.70994 7.29C8.80367 7.38297 8.87806 7.49357 8.92883 7.61543C8.9796 7.73728 9.00574 7.86799 9.00574 8C9.00574 8.13201 8.9796 8.26272 8.92883 8.38458C8.87806 8.50644 8.80367 8.61704 8.70994 8.71L2.70994 14.71C2.6165 14.8027 2.50568 14.876 2.38385 14.9258C2.26201 14.9755 2.13155 15.0008 1.99994 15Z" fill="white"/>
</svg>
