<svg width="15" height="15" viewBox="0 0 15 15" fill="none" xmlns="http://www.w3.org/2000/svg">
<path d="M7.5 0.9375C6.20206 0.9375 4.93327 1.32238 3.85407 2.04348C2.77488 2.76458 1.93374 3.7895 1.43704 4.98864C0.940343 6.18778 0.810384 7.50728 1.0636 8.78028C1.31682 10.0533 1.94183 11.2226 2.85961 12.1404C3.7774 13.0582 4.94672 13.6832 6.21972 13.9364C7.49272 14.1896 8.81222 14.0597 10.0114 13.563C11.2105 13.0663 12.2354 12.2251 12.9565 11.1459C13.6776 10.0667 14.0625 8.79794 14.0625 7.5C14.0625 5.75952 13.3711 4.09032 12.1404 2.85961C10.9097 1.6289 9.24049 0.9375 7.5 0.9375ZM7.03125 3.28125C7.03125 3.15693 7.08064 3.0377 7.16855 2.94979C7.25645 2.86189 7.37568 2.8125 7.5 2.8125C7.62432 2.8125 7.74355 2.86189 7.83146 2.94979C7.91937 3.0377 7.96875 3.15693 7.96875 3.28125V8.90625C7.96875 9.03057 7.91937 9.1498 7.83146 9.23771C7.74355 9.32561 7.62432 9.375 7.5 9.375C7.37568 9.375 7.25645 9.32561 7.16855 9.23771C7.08064 9.1498 7.03125 9.03057 7.03125 8.90625V3.28125ZM7.5 12.1875C7.36094 12.1875 7.225 12.1463 7.10937 12.069C6.99374 11.9917 6.90362 11.8819 6.8504 11.7534C6.79718 11.625 6.78326 11.4836 6.81039 11.3472C6.83752 11.2108 6.90448 11.0855 7.00282 10.9872C7.10115 10.8889 7.22644 10.8219 7.36283 10.7948C7.49922 10.7676 7.6406 10.7816 7.76908 10.8348C7.89756 10.888 8.00737 10.9781 8.08463 11.0937C8.16189 11.2094 8.20313 11.3453 8.20313 11.4844C8.20313 11.6709 8.12905 11.8497 7.99719 11.9816C7.86533 12.1134 7.68648 12.1875 7.5 12.1875Z" fill="#DA5B4A"/>
</svg>
